<svg xmlns="http://www.w3.org/2000/svg" xmlns:xlink="http://www.w3.org/1999/xlink" width="1340" height="185pt" viewBox="0 0 1004.5 185"><g id="graph0" class="graph" transform="scale(1 1) rotate(0) translate(4 181)"><polygon fill="#fff" stroke="transparent" points="-4 4 -4 -181 1000.5 -181 1000.5 4 -4 4"/><g id="node1" class="node"><title>genotyping.Litter</title><g id="a_node1"><a xlink:title="→ genotyping.BreedingPairlitter_birth_date ------------------------------num_of_pups litter_notes=&quot;&quot;"><polygon fill="#0f0" fill-opacity=".188" stroke="#0f0" stroke-opacity=".188" points="116 -106 11 -106 11 -71 116 -71 116 -106"/><text x="19" y="-86.4" fill="#006400" font-family="arial" font-size="12" text-anchor="start" text-decoration="underline">genotyping.Litter</text></a></g></g><g id="node4" class="node"><title>genotyping.SubjectLitter</title><g id="a_node4"><a xlink:title="→ subject.Subject------------------------------→ genotyping.Litter"><polygon fill="#0f0" fill-opacity=".188" stroke="#0f0" stroke-opacity=".188" points="426.5 -35 280.5 -35 280.5 0 426.5 0 426.5 -35"/><text x="353.5" y="-14.4" fill="#006400" font-family="arial" font-size="12" text-anchor="middle">genotyping.SubjectLitter</text></a></g></g><g id="edge1" class="edge"><title>genotyping.Litter-&gt;genotyping.SubjectLitter</title><path fill="none" stroke="#000" stroke-dasharray="5 2" stroke-opacity=".251" stroke-width=".75" d="M116.04,-73.15C118.9,-72.41 121.73,-71.69 124.5,-71 176.44,-58.03 235.31,-44.56 280.36,-34.51"/></g><g id="node11" class="node"><title>genotyping.Weaning</title><g id="a_node11"><a xlink:title="→ genotyping.Litter------------------------------weaning_date num_of_male num_of_female weaning_notes=&quot;&quot;"><polygon fill="#0f0" fill-opacity=".188" stroke="#0f0" stroke-opacity=".188" points="127 -35 0 -35 0 0 127 0 127 -35"/><text x="63.5" y="-14.4" fill="#006400" font-family="arial" font-size="12" text-anchor="middle">genotyping.Weaning</text></a></g></g><g id="edge2" class="edge"><title>genotyping.Litter-&gt;genotyping.Weaning</title><path fill="none" stroke="#000" stroke-opacity=".251" stroke-width="2" d="M63.5,-70.8C63.5,-59.95 63.5,-45.87 63.5,-35.05"/></g><g id="node2" class="node"><title>genotyping.AlleleSequence</title><g id="a_node2"><a xlink:title="→ subject.Allele→ genotyping.Sequence"><polygon fill="#000" fill-opacity=".125" stroke="transparent" points="996.5 -106 862.5 -106 862.5 -71 996.5 -71 996.5 -106"/><text x="929.5" y="-86" font-family="arial" font-size="10" text-anchor="middle">genotyping.AlleleSequence</text></a></g></g><g id="node3" class="node"><title>genotyping.BreedingPair.Mother</title><g id="a_node3"><a xlink:title="→ genotyping.BreedingPair→ subject.Subject"><polygon fill="transparent" stroke="transparent" points="460 -98 305 -98 305 -79 460 -79 460 -98"/><text x="382.5" y="-86" font-family="arial" font-size="10" text-anchor="middle">genotyping.BreedingPair.Mother</text></a></g></g><g id="node5" class="node"><title>subject.Subject</title><g id="a_node5"><a xlink:title="subject ------------------------------sex subject_birth_date subject_description=&quot;&quot;"><polygon fill="#0f0" fill-opacity=".188" stroke="#0f0" stroke-opacity=".188" points="534.5 -177 436.5 -177 436.5 -142 534.5 -142 534.5 -177"/><text x="444.5" y="-157.4" fill="#006400" font-family="arial" font-size="12" text-anchor="start" text-decoration="underline">subject.Subject</text></a></g></g><g id="edge3" class="edge"><title>subject.Subject-&gt;genotyping.BreedingPair.Mother</title><path fill="none" stroke="#000" stroke-opacity=".251" stroke-width=".75" d="M460.83,-141.97C440.24,-128.18 411.7,-109.06 395.37,-98.12"/></g><g id="edge4" class="edge"><title>subject.Subject-&gt;genotyping.SubjectLitter</title><path fill="none" stroke="#000" stroke-opacity=".251" stroke-width="2" d="M486.56,-141.83C486.88,-122.72 484.59,-91.42 468.5,-71 455.53,-54.54 436.23,-43.05 417.13,-35.12"/></g><g id="node6" class="node"><title>genotyping.BreedingPair.Father</title><g id="a_node6"><a xlink:title="→ genotyping.BreedingPair------------------------------→ subject.Subject"><polygon fill="transparent" stroke="transparent" points="287 -98 134 -98 134 -79 287 -79 287 -98"/><text x="210.5" y="-86" font-family="arial" font-size="10" text-anchor="middle">genotyping.BreedingPair.Father</text></a></g></g><g id="edge5" class="edge"><title>subject.Subject-&gt;genotyping.BreedingPair.Father</title><path fill="none" stroke="#000" stroke-dasharray="5 2" stroke-opacity=".251" stroke-width=".75" d="M436.34,-146.16C381.03,-132.29 292.65,-110.11 244.49,-98.03"/></g><g id="node9" class="node"><title>genotyping.SubjectCaging</title><g id="a_node9"><a xlink:title="→ subject.Subjectcaging_datetime ------------------------------→ genotyping.Cage→ `lab`.`#user`"><polygon fill="#0f0" fill-opacity=".188" stroke="#0f0" stroke-opacity=".188" points="674.5 -106 516.5 -106 516.5 -71 674.5 -71 674.5 -106"/><text x="524.5" y="-86.4" fill="#006400" font-family="arial" font-size="12" text-anchor="start" text-decoration="underline">genotyping.SubjectCaging</text></a></g></g><g id="edge6" class="edge"><title>subject.Subject-&gt;genotyping.SubjectCaging</title><path fill="none" stroke="#000" stroke-opacity=".251" stroke-width=".75" d="M511.85,-141.97C529.14,-131.13 551.66,-117 568.99,-106.13"/></g><g id="node13" class="node"><title>genotyping.GenotypeTest</title><g id="a_node13"><a xlink:title="→ subject.Subject→ genotyping.Sequencegenotype_test_id ------------------------------test_result"><polygon fill="#0f0" fill-opacity=".188" stroke="#0f0" stroke-opacity=".188" points="844.5 -106 692.5 -106 692.5 -71 844.5 -71 844.5 -106"/><text x="700.5" y="-86.4" fill="#006400" font-family="arial" font-size="12" text-anchor="start" text-decoration="underline">genotyping.GenotypeTest</text></a></g></g><g id="edge7" class="edge"><title>subject.Subject-&gt;genotyping.GenotypeTest</title><path fill="none" stroke="#000" stroke-opacity=".251" stroke-width=".75" d="M534.5,-144.38C537.54,-143.56 540.56,-142.76 543.5,-142 593.3,-129.11 649.68,-115.96 693.54,-106.05"/></g><g id="node7" class="node"><title>genotyping.BreedingPair</title><g id="a_node7"><a xlink:title="→ subject.Linebreeding_pair ------------------------------bp_start_date=null bp_end_date=null bp_description=&quot;&quot;"><polygon fill="#0f0" fill-opacity=".188" stroke="#0f0" stroke-opacity=".188" points="285 -177 136 -177 136 -142 285 -142 285 -177"/><text x="144" y="-157.4" fill="#006400" font-family="arial" font-size="12" text-anchor="start" text-decoration="underline">genotyping.BreedingPair</text></a></g></g><g id="edge8" class="edge"><title>genotyping.BreedingPair-&gt;genotyping.Litter</title><path fill="none" stroke="#000" stroke-opacity=".251" stroke-width=".75" d="M175.29,-141.97C152.1,-131.09 121.86,-116.89 98.68,-106.01"/></g><g id="edge9" class="edge"><title>genotyping.BreedingPair-&gt;genotyping.BreedingPair.Mother</title><path fill="none" stroke="#000" stroke-opacity=".251" stroke-width=".75" d="M251.7,-141.97C286.09,-128.18 333.73,-109.06 361.01,-98.12"/></g><g id="edge10" class="edge"><title>genotyping.BreedingPair-&gt;genotyping.BreedingPair.Father</title><path fill="none" stroke="#000" stroke-opacity=".251" stroke-width="2" d="M210.5,-141.8C210.5,-128.08 210.5,-109.19 210.5,-98.27"/></g><g id="node8" class="node"><title>subject.Allele</title><g id="a_node8"><a xlink:title="allele ------------------------------allele_standard_name=&quot;&quot;"><polygon fill="#000" fill-opacity=".125" stroke="transparent" points="967 -177 892 -177 892 -142 967 -142 967 -177"/><text x="900" y="-158" font-family="arial" font-size="10" text-anchor="start" text-decoration="underline">subject.Allele</text></a></g></g><g id="edge11" class="edge"><title>subject.Allele-&gt;genotyping.AlleleSequence</title><path fill="none" stroke="#000" stroke-opacity=".251" stroke-width=".75" d="M929.5,-141.8C929.5,-130.95 929.5,-116.87 929.5,-106.05"/></g><g id="node10" class="node"><title>genotyping.Sequence</title><g id="a_node10"><a xlink:title="sequence ------------------------------base_pairs=&quot;&quot; sequence_desc=&quot;&quot;"><polygon fill="#000" fill-opacity=".125" stroke="transparent" points="848.5 -177 738.5 -177 738.5 -142 848.5 -142 848.5 -177"/><text x="746.5" y="-158" font-family="arial" font-size="10" text-anchor="start" text-decoration="underline">genotyping.Sequence</text></a></g></g><g id="edge12" class="edge"><title>genotyping.Sequence-&gt;genotyping.AlleleSequence</title><path fill="none" stroke="#000" stroke-opacity=".251" stroke-width=".75" d="M826.08,-141.97C847.45,-131.13 875.3,-117 896.72,-106.13"/></g><g id="edge13" class="edge"><title>genotyping.Sequence-&gt;genotyping.GenotypeTest</title><path fill="none" stroke="#000" stroke-opacity=".251" stroke-width=".75" d="M787.45,-141.8C783.52,-130.95 778.42,-116.87 774.5,-106.05"/></g><g id="node12" class="node"><title>genotyping.Cage</title><g id="a_node12"><a xlink:title="cage ------------------------------cage_purpose=&quot;&quot;"><polygon fill="#000" fill-opacity=".125" stroke="transparent" points="642.5 -177 552.5 -177 552.5 -142 642.5 -142 642.5 -177"/><text x="560.5" y="-158" font-family="arial" font-size="10" text-anchor="start" text-decoration="underline">genotyping.Cage</text></a></g></g><g id="edge14" class="edge"><title>genotyping.Cage-&gt;genotyping.SubjectCaging</title><path fill="none" stroke="#000" stroke-dasharray="5 2" stroke-opacity=".251" stroke-width=".75" d="M597.02,-141.8C596.7,-130.95 596.29,-116.87 595.98,-106.05"/></g></g></svg>